<?xml version="1.0" encoding="UTF-8"?>
<svg id="_图层_1" data-name="图层 1" xmlns="http://www.w3.org/2000/svg" width="40" height="40" viewBox="0 0 40 40">
  <path d="m0,5.714c0-1.58,1.277-2.857,2.857-2.857h34.286c1.58,0,2.857,1.277,2.857,2.857s-1.277,2.857-2.857,2.857H2.857c-1.58,0-2.857-1.277-2.857-2.857Zm0,14.286c0-1.58,1.277-2.857,2.857-2.857h34.286c1.58,0,2.857,1.277,2.857,2.857s-1.277,2.857-2.857,2.857H2.857c-1.58,0-2.857-1.277-2.857-2.857Zm40,14.286c0,1.58-1.277,2.857-2.857,2.857H2.857c-1.58,0-2.857-1.277-2.857-2.857s1.277-2.857,2.857-2.857h34.286c1.58,0,2.857,1.277,2.857,2.857Z" style="fill: #fff;"/>
</svg>