<?xml version="1.0" encoding="UTF-8"?>
<svg id="crown-solid" data-name="crown-solid" xmlns="http://www.w3.org/2000/svg" width="100" height="100" viewBox="0 0 100 100">
  <path d="m50,0C22.386,0,0,22.386,0,50s22.386,50,50,50,50-22.386,50-50S77.614,0,50,0Zm25.833,41.667h-.073l-4.76,26.188c-.583,3.177-3.344,5.479-6.562,5.479h-28.875c-3.229,0-5.99-2.312-6.562-5.479l-4.76-26.188h-.073c-2.302,0-4.167-1.865-4.167-4.167s1.865-4.167,4.167-4.167,4.167,1.865,4.167,4.167c0,.938-.312,1.802-.833,2.5l9.281,7.427c1.656,1.323,4.115.781,5.062-1.115l5.969-11.938c-1.188-.729-1.979-2.042-1.979-3.542,0-2.302,1.865-4.167,4.167-4.167s4.167,1.865,4.167,4.167c0,1.49-.792,2.812-1.979,3.542l5.969,11.938c.948,1.896,3.406,2.438,5.062,1.115l9.281-7.427c-.521-.698-.833-1.562-.833-2.5,0-2.302,1.865-4.167,4.167-4.167s4.167,1.865,4.167,4.167-1.865,4.167-4.167,4.167Z" style="fill: #fff;"/>
</svg>