<?xml version="1.0" encoding="UTF-8"?>
<svg id="flask-vial-solid" data-name="flask-vial-solid" xmlns="http://www.w3.org/2000/svg" width="100" height="100" viewBox="0 0 100 100">
  <path d="m60,47.5v-12.5h-5v12.5c0,.461-.125.914-.367,1.312l-3.812,6.188h13.359l-3.812-6.188c-.242-.391-.367-.844-.367-1.312Z" style="fill: #fff;"/>
  <path d="m50,0C22.386,0,0,22.386,0,50s22.386,50,50,50,50-22.386,50-50S77.614,0,50,0Zm-12.5,64.57c-.781.273-1.625.43-2.5.43-4.141,0-7.5-3.359-7.5-7.5v-22.5c-1.383,0-2.5-1.117-2.5-2.5s1.117-2.5,2.5-2.5h15c1.383,0,2.5,1.117,2.5,2.5s-1.117,2.5-2.5,2.5v19.211l-3.828,6.219v-.008c-.766,1.25-1.172,2.68-1.172,4.148Zm32.078,5.43h-24.156c-2.992,0-5.422-2.43-5.422-5.422,0-1,.281-1.984.805-2.844l9.195-14.945v-11.789c-1.383,0-2.5-1.117-2.5-2.5s1.117-2.5,2.5-2.5h15c1.383,0,2.5,1.117,2.5,2.5s-1.117,2.5-2.5,2.5v11.789l9.195,14.945c.523.852.805,1.836.805,2.844,0,2.992-2.43,5.422-5.422,5.422Z" style="fill: #fff;"/>
  <rect x="32.5" y="35" width="5" height="7.5" style="fill: #fff;"/>
</svg>