<?xml version="1.0" encoding="UTF-8"?>
<svg id="_图层_1" data-name="图层 1" xmlns="http://www.w3.org/2000/svg" width="37.709" height="40" viewBox="0 0 37.709 40">
  <path d="m37.604,13.018c.25.68.039,1.438-.5,1.922l-3.383,3.079c.086.649.133,1.313.133,1.985s-.047,1.336-.133,1.985l3.383,3.079c.539.484.75,1.242.5,1.922-.344.93-.758,1.821-1.235,2.68l-.367.633c-.516.86-1.094,1.672-1.727,2.438-.461.563-1.227.75-1.914.531l-4.352-1.383c-1.047.805-2.204,1.477-3.438,1.985l-.977,4.462c-.156.711-.703,1.274-1.422,1.391-1.078.18-2.188.273-3.321.273s-2.243-.094-3.321-.273c-.719-.117-1.266-.68-1.422-1.391l-.977-4.462c-1.235-.508-2.391-1.18-3.438-1.985l-4.345,1.391c-.688.219-1.453.023-1.914-.531-.633-.766-1.211-1.578-1.727-2.438l-.367-.633c-.477-.86-.891-1.75-1.235-2.68-.25-.68-.039-1.438.5-1.922l3.383-3.079c-.086-.656-.133-1.321-.133-1.993s.047-1.336.133-1.985l-3.383-3.079c-.539-.484-.75-1.242-.5-1.922.344-.93.758-1.821,1.235-2.68l.367-.633c.516-.86,1.094-1.672,1.727-2.438.461-.563,1.227-.75,1.914-.531l4.352,1.383c1.047-.805,2.204-1.477,3.438-1.985l.977-4.462c.156-.711.703-1.274,1.422-1.391,1.078-.188,2.188-.281,3.321-.281s2.243.094,3.321.273c.719.117,1.266.68,1.422,1.391l.977,4.462c1.235.508,2.391,1.18,3.438,1.985l4.352-1.383c.688-.219,1.453-.023,1.914.531.633.766,1.211,1.578,1.727,2.438l.367.633c.477.86.891,1.75,1.235,2.68l-.008.008Zm-18.746,13.237c3.452,0,6.251-2.799,6.251-6.251s-2.799-6.251-6.251-6.251-6.251,2.799-6.251,6.251,2.799,6.251,6.251,6.251Z" style="fill: #fff;"/>
</svg>