<?xml version="1.0" encoding="UTF-8"?>
<svg id="_图层_6" data-name="图层 6" xmlns="http://www.w3.org/2000/svg" width="100" height="100" viewBox="0 0 100 100">
  <path d="m50,0C22.386,0,0,22.386,0,50s22.386,50,50,50,50-22.386,50-50S77.614,0,50,0Zm-13.884,72.219h-8.729c-.942,0-1.805-.555-2.182-1.428-.377-.873-.208-1.875.427-2.569l7.142-7.737c.526-.575.536-1.448.03-2.033h.01c-.645-.734-1.815-.684-2.381.119l-1.111,1.537c-.764,1.071-2.252,1.319-3.323.555-1.071-.764-1.319-2.252-.555-3.323l1.101-1.547c2.351-3.293,7.172-3.531,9.84-.486,2.113,2.42,2.063,6.041-.109,8.402l-3.452,3.749h3.293c1.319,0,2.381,1.061,2.381,2.381s-1.061,2.381-2.381,2.381Zm0-25.393h-7.935c-1.319,0-2.381-1.061-2.381-2.381s1.061-2.381,2.381-2.381h1.587v-9.523h-.794c-1.319,0-2.381-1.061-2.381-2.381s1.061-2.381,2.381-2.381h3.174c1.319,0,2.381,1.061,2.381,2.381v11.903h1.587c1.319,0,2.381,1.061,2.381,2.381s-1.061,2.381-2.381,2.381Zm35.709,22.219h-25.393c-1.756,0-3.174-1.418-3.174-3.174s1.418-3.174,3.174-3.174h25.393c1.756,0,3.174,1.418,3.174,3.174s-1.418,3.174-3.174,3.174Zm0-15.871h-25.393c-1.756,0-3.174-1.418-3.174-3.174s1.418-3.174,3.174-3.174h25.393c1.756,0,3.174,1.418,3.174,3.174s-1.418,3.174-3.174,3.174Zm0-15.871h-25.393c-1.756,0-3.174-1.418-3.174-3.174s1.418-3.174,3.174-3.174h25.393c1.756,0,3.174,1.418,3.174,3.174s-1.418,3.174-3.174,3.174Z" style="fill: #fff;"/>
</svg>