<?xml version="1.0" encoding="UTF-8"?>
<svg id="magnifying-glass" data-name="magnifying-glass" xmlns="http://www.w3.org/2000/svg" width="100" height="100" viewBox="0 0 100 100">
  <circle cx="45.313" cy="45.309" r="14.063" transform="translate(-13.887 69.834) rotate(-67.5)" style="fill: #fff;"/>
  <path d="m50,0C22.386,0,0,22.386,0,50s22.386,50,50,50,50-22.386,50-50S77.614,0,50,0Zm24.084,74.089c-1.221,1.221-3.203,1.221-4.424,0l-12.364-12.374c-3.36,2.461-7.5,3.906-11.983,3.906-11.221,0-20.313-9.092-20.313-20.313s9.092-20.313,20.313-20.313,20.314,9.092,20.314,20.313c0,4.483-1.455,8.623-3.906,11.983l12.364,12.374c1.221,1.221,1.221,3.203,0,4.424Z" style="fill: #fff;"/>
</svg>