<?xml version="1.0" encoding="UTF-8"?>
<svg id="map-location-dot-solid" data-name="map-location-dot-solid" xmlns="http://www.w3.org/2000/svg" width="100" height="100" viewBox="0 0 100 100">
  <circle cx="50" cy="37.828" r="3.472" style="fill: #fff;"/>
  <path d="m50,0C22.386,0,0,22.386,0,50s22.386,50,50,50,50-22.386,50-50S77.614,0,50,0Zm-11.111,67.325l-11.033,4.418c-1.372.547-2.856-.46-2.856-1.936v-23.507c0-.851.521-1.615,1.311-1.936l10.634-4.25s0-.002,0-.003h.009l-.008.003c.208,1.223.625,2.454,1.11,3.599.252.59.53,1.189.833,1.788v21.823Zm19.444,4.557l-16.667-4.766v-16.875c1.779,2.717,3.672,5.174,4.878,6.684,1.779,2.222,5.13,2.222,6.91,0,1.207-1.51,3.099-3.967,4.878-6.684v21.641Zm-7.049-16.693c-.668.833-1.91.833-2.569,0-2.786-3.481-9.132-11.927-9.132-16.667,0-5.755,4.661-10.417,10.417-10.417s10.417,4.661,10.417,10.417c0,4.74-6.346,13.186-9.132,16.667Zm23.715,9.618c0,.851-.521,1.615-1.311,1.936l-12.578,5.026v-26.267c.304-.599.582-1.198.833-1.788.043-.104.087-.217.13-.321l10.069-4.028c1.372-.547,2.856.46,2.856,1.936v23.507Z" style="fill: #fff;"/>
</svg>