<?xml version="1.0" encoding="UTF-8"?>
<svg id="splotch-solid" data-name="splotch-solid" xmlns="http://www.w3.org/2000/svg" width="100" height="100" viewBox="0 0 100 100">
  <path d="m50,0C22.386,0,0,22.386,0,50s22.386,50,50,50,50-22.386,50-50S77.614,0,50,0Zm22.9,53.13l-6.572,4.933c-2.373,1.778-3.633,4.679-3.301,7.628l.244,2.217c.42,3.78-2.539,7.091-6.348,7.091-1.445,0-2.861-.498-3.984-1.397l-5.41-4.327c-.439-.352-.908-.654-1.416-.899-1.543-.772-3.291-1.016-4.98-.713l-8.086,1.475c-3.379.615-6.484-1.983-6.484-5.411,0-1.289.459-2.54,1.279-3.536l1.094-1.309c1.426-1.7,2.207-3.848,2.207-6.066,0-1.836-.537-3.634-1.543-5.177l-3.74-5.694c-.557-.86-.859-1.866-.859-2.891,0-3.262,2.939-5.743,6.152-5.196l5.01.85c3.506.596,7.051-.801,9.199-3.624l2.744-3.604c1.191-1.563,3.047-2.481,5.02-2.481,2.783,0,5.234,1.827,6.035,4.493l1.738,5.802c1.006,3.36,3.525,6.056,6.816,7.287l3.887,1.455c2.041.772,3.398,2.725,3.398,4.903,0,1.651-.771,3.204-2.1,4.19Z" style="fill: #fff;"/>
</svg>